<svg xmlns="http://www.w3.org/2000/svg" viewBox="0 0 1280 800">
  <defs><linearGradient id="pBg" x1="0" y1="0" x2="0" y2="1"><stop offset="0" stop-color="#faf8f4"/><stop offset="1" stop-color="#f4f1ea"/></linearGradient></defs>
  <rect width="1280" height="800" fill="url(#pBg)"/>
  <rect width="1280" height="56" fill="#fff"/>
  <line x1="0" y1="56" x2="1280" y2="56" stroke="#e5e1d8"/>
  <text x="32" y="34" font-family="system-ui,sans-serif" font-size="14" fill="#737373">Tvůrce / Akce / Spring Camp / </text>
  <text x="290" y="34" font-family="system-ui,sans-serif" font-size="14" font-weight="600" fill="#1a1a1a">Přihlášky</text>
  <!-- Stats tiles -->
  <g font-family="system-ui,sans-serif">
    <rect x="40" y="92" width="190" height="80" rx="12" fill="#fff" stroke="#e5e1d8"/>
    <text x="56" y="120" font-size="11" fill="#737373">PŘIHLÁŠENO</text>
    <text x="56" y="156" font-size="28" font-weight="700" fill="#1a1a1a">12<tspan font-size="14" fill="#737373" font-weight="400">/16</tspan></text>
    <rect x="246" y="92" width="190" height="80" rx="12" fill="#fff" stroke="#e5e1d8"/>
    <text x="262" y="120" font-size="11" fill="#737373">ČEKÁ NA SCHVÁLENÍ</text>
    <text x="262" y="156" font-size="28" font-weight="700" fill="#f59e0b">3</text>
    <rect x="452" y="92" width="190" height="80" rx="12" fill="#fff" stroke="#e5e1d8"/>
    <text x="468" y="120" font-size="11" fill="#737373">WAITLIST</text>
    <text x="468" y="156" font-size="28" font-weight="700" fill="#1a1a1a">5</text>
    <rect x="658" y="92" width="190" height="80" rx="12" fill="#fff" stroke="#e5e1d8"/>
    <text x="674" y="120" font-size="11" fill="#737373">NEZAPLACENO</text>
    <text x="674" y="156" font-size="28" font-weight="700" fill="#dc2626">7</text>
  </g>
  <!-- Table -->
  <rect x="40" y="196" width="1200" height="568" rx="14" fill="#fff" stroke="#e5e1d8"/>
  <rect x="40" y="196" width="1200" height="44" fill="#faf8f4"/>
  <line x1="40" y1="240" x2="1240" y2="240" stroke="#e5e1d8"/>
  <g font-family="system-ui,sans-serif" font-size="11" fill="#737373" font-weight="600">
    <text x="60" y="223">ÚČASTNÍK</text>
    <text x="380" y="223">STATUS</text>
    <text x="540" y="223">TRIČKO</text>
    <text x="670" y="223">DOPRAVA</text>
    <text x="850" y="223">PLATBA</text>
    <text x="1000" y="223">DOKUMENTY</text>
  </g>
  <g font-family="system-ui,sans-serif" font-size="13" fill="#1a1a1a">
    <!-- Row 1 with duplicate badge -->
    <text x="60" y="284" font-weight="500">Jan Dvořák</text>
    <rect x="160" y="270" width="84" height="20" rx="10" fill="#fef3c7"/>
    <text x="202" y="284" font-size="10" font-weight="500" fill="#d97706" text-anchor="middle">⚠ Duplikát?</text>
    <text x="60" y="304" font-size="11" fill="#737373">jan.d@example.com · +420 777 111 222</text>
    <rect x="370" y="270" width="94" height="22" rx="11" fill="#dcfce7"/>
    <text x="417" y="285" font-size="11" font-weight="500" fill="#16a34a" text-anchor="middle">POTVRZENO</text>
    <text x="555" y="285" fill="#525252">XL</text>
    <text x="685" y="285" fill="#525252">vlastní auto</text>
    <rect x="840" y="270" width="80" height="22" rx="11" fill="#dcfce7"/>
    <text x="880" y="285" font-size="11" font-weight="500" fill="#16a34a" text-anchor="middle">ZAPLACENO</text>
    <text x="1015" y="285" fill="#16a34a">✓✓✓</text>
    <line x1="40" y1="320" x2="1240" y2="320" stroke="#f0ede5"/>

    <!-- Row 2 -->
    <text x="60" y="350" font-weight="500">Marta Member</text>
    <text x="60" y="370" font-size="11" fill="#737373">marta@example.com · +420 603 999 000</text>
    <rect x="370" y="336" width="94" height="22" rx="11" fill="#fef3c7"/>
    <text x="417" y="351" font-size="11" font-weight="500" fill="#d97706" text-anchor="middle">ČEKÁ</text>
    <text x="555" y="351" fill="#525252">M</text>
    <text x="685" y="351" fill="#525252">spolujízda</text>
    <rect x="840" y="336" width="80" height="22" rx="11" fill="#fef3c7"/>
    <text x="880" y="351" font-size="11" font-weight="500" fill="#d97706" text-anchor="middle">PENDING</text>
    <text x="1015" y="351" fill="#737373">✓✗✗</text>
    <line x1="40" y1="386" x2="1240" y2="386" stroke="#f0ede5"/>

    <!-- Row 3 -->
    <text x="60" y="416" font-weight="500">Honza Pelán</text>
    <rect x="160" y="402" width="84" height="20" rx="10" fill="#fef3c7"/>
    <text x="202" y="416" font-size="10" font-weight="500" fill="#d97706" text-anchor="middle">⚠ Duplikát?</text>
    <text x="60" y="436" font-size="11" fill="#737373">jan.p@example.com · +420 777 111 222</text>
    <rect x="370" y="402" width="94" height="22" rx="11" fill="#dcfce7"/>
    <text x="417" y="417" font-size="11" font-weight="500" fill="#16a34a" text-anchor="middle">POTVRZENO</text>
    <text x="555" y="417" fill="#525252">L</text>
    <text x="685" y="417" fill="#525252">vlastní auto</text>
    <rect x="840" y="402" width="80" height="22" rx="11" fill="#dcfce7"/>
    <text x="880" y="417" font-size="11" font-weight="500" fill="#16a34a" text-anchor="middle">ZAPLACENO</text>
    <text x="1015" y="417" fill="#16a34a">✓✓✓</text>
    <line x1="40" y1="452" x2="1240" y2="452" stroke="#f0ede5"/>

    <!-- Row 4 -->
    <text x="60" y="482" font-weight="500">Eva Nováková</text>
    <text x="60" y="502" font-size="11" fill="#737373">eva@example.com · +420 605 444 333</text>
    <rect x="370" y="468" width="94" height="22" rx="11" fill="#e0e7ff"/>
    <text x="417" y="483" font-size="11" font-weight="500" fill="#4f46e5" text-anchor="middle">WAITLIST</text>
    <text x="555" y="483" fill="#525252">S</text>
    <text x="685" y="483" fill="#525252">vlak</text>
    <text x="880" y="483" font-size="11" fill="#525252" text-anchor="middle">—</text>
    <text x="1015" y="483" fill="#737373">—</text>
    <line x1="40" y1="518" x2="1240" y2="518" stroke="#f0ede5"/>

    <!-- Row 5 -->
    <text x="60" y="548" font-weight="500">Petr Skála</text>
    <text x="60" y="568" font-size="11" fill="#737373">petr@example.com · +420 776 222 111</text>
    <rect x="370" y="534" width="94" height="22" rx="11" fill="#dcfce7"/>
    <text x="417" y="549" font-size="11" font-weight="500" fill="#16a34a" text-anchor="middle">POTVRZENO</text>
    <text x="555" y="549" fill="#525252">XL</text>
    <text x="685" y="549" fill="#525252">vlastní auto</text>
    <rect x="840" y="534" width="80" height="22" rx="11" fill="#fef3c7"/>
    <text x="880" y="549" font-size="11" font-weight="500" fill="#d97706" text-anchor="middle">PENDING</text>
    <text x="1015" y="549" fill="#737373">✓✓✗</text>
  </g>
</svg>
